# xmcd
#
# Track frame offsets:
#	150
#	26396
#	48748
#	75747
#	100927
#	128794
#	155108
#	182580
#	210911
#	238203
#	263746
#	285488
#	311615
#	335354
#
# Disc length: 4770 seconds
# Revision: 0
# Processed by: cddbd v1.5.2PL0 Copyright (c) Steve Scherf et al.
# Submitted via: dBpowerAMP V12.0
#
DISCID=be12a00e
DTITLE=Franz Kafka - Der Prozess 6
DYEAR=2008
DGENRE=Unbekanntes Genre
TTITLE0=Kaufmann Block - Kündigung des Advokaten
TTITLE1=Kaufmann Block - Kündigung des Advokaten
TTITLE2=Kaufmann Block - Kündigung des Advokaten
TTITLE3=Kaufmann Block - Kündigung des Advokaten
TTITLE4=Im Dom
TTITLE5=Im Dom
TTITLE6=Im Dom
TTITLE7=Im Dom
TTITLE8=Im Dom
TTITLE9=Im Dom
TTITLE10=Im Dom
TTITLE11=Im Dom
TTITLE12=Im Dom
TTITLE13=Im Dom
EXTD=
EXTT0=
EXTT1=
EXTT2=
EXTT3=
EXTT4=
EXTT5=
EXTT6=
EXTT7=
EXTT8=
EXTT9=
EXTT10=
EXTT11=
EXTT12=
EXTT13=
PLAYORDER=
